<svg version="1" xmlns="http://www.w3.org/2000/svg" width="933.333" height="933.333" viewBox="0 0 700.000000 700.000000"><path d="M0 350v350h700V0H0v350zm209.1-185c15.6 2.9 30 15.3 36 30.9 11.2 29.6-7.1 62.1-37.8 67.3-35.9 6-65.5-29.9-53.7-65 8-23.9 31.2-37.7 55.5-33.2zM91.2 185.5l.3 20.5 17.4-20.5 17.3-20.5h26.1l-2 2.2c-4.1 4.7-33 39.4-33.7 40.6-.5.8 6.2 10.8 18.3 27.6 10.5 14.5 19.1 26.7 19.1 27 0 .3-5.7.6-12.8.6h-12.7l-13.3-19c-7.3-10.4-13.7-19.2-14.1-19.5-.5-.2-2.9 1.8-5.5 4.5l-4.6 4.9V263H68v-98h23l.2 20.5zm210.1 7c12 15.1 22.2 27.7 22.7 28 .7.4 1-9.3 1-27.4V165h23v98h-18.9l-22.3-27.6-22.3-27.7-.3 27.7-.2 27.6h-23v-98h18.6l21.7 27.5zm122.5-24.7c11 5.9 18.4 17.7 18.6 29.7.1 10.1-2.5 16.6-9.6 23.8l-5.8 5.8 10.5 17.6 10.4 17.5 1.4-3.3c.7-1.9 8.7-23.8 17.8-48.6l16.4-45.3h21.1l17.4 47.7c9.5 26.3 17.5 48.4 17.8 49 .3 1-2.4 1.3-11.5 1.3h-11.9l-3.5-10.8-3.5-10.7-15.1-.3-15.1-.3-3.1 8.6c-1.7 4.7-3.3 9.6-3.7 11l-.6 2.5h-49.6l-9.2-15.5-9.1-15.5H389v31h-23v-98.1l26.8.3c25.7.3 26.9.4 31 2.6zm177.6-1.2c15.8 4.1 27.8 16.2 32.2 32.7 1.9 7.1 1.8 23-.2 29.8-4 13.5-12.3 23.5-23.9 29-9 4.3-14.9 5-38.6 4.7l-21.4-.3-.3-48.8-.2-48.7h23.1c17.8 0 24.5.4 29.3 1.6zM190.1 286.4c15.7 2.8 27.7 9.4 40.4 22.1 14.1 14.2 22.5 31.4 24.3 50 3.3 34.2-12.6 65.3-40.5 79.2-4 2-7.3 3.8-7.3 4 0 .2 12.9 21.1 28.6 46.5 15.7 25.4 28.8 46.8 29.1 47.5.4 1-3.8 1.3-21.9 1.3h-22.5l-27.4-44-27.4-44H108v88H68V285h57.3c43.5.1 59 .4 64.8 1.4zM471 303v18H342v71h112v33H342v76h132v36H302V285h169v18zm162.7 64.7c-.4 84.4-.8 93.5-4.7 110.8-5.7 25.8-18.3 43.6-37.5 53-24.8 12.3-66.1 11.9-91-.8-11.6-5.9-11-4-6-21 2.4-8.1 4.6-15.4 4.9-16.2.4-1.1 1.4-.9 4.9 1.1 6.1 3.4 17 7 25.1 8.5 10.2 1.7 28.7.7 35.8-2 11.8-4.6 20.8-16.5 24.2-32.3 3.4-15.7 3.8-24.8 4.3-104.1l.5-79.7h39.9l-.4 82.7z"/><path d="M190 186.6c-20.5 8.9-20.9 45.1-.5 54.5 9.7 4.5 23.7 1 29.3-7.4 4.2-6.4 5.3-9.6 5.9-17.2 1.4-18.3-9.2-31.6-25.1-31.5-3.4.1-7.7.8-9.6 1.6zM389 198v13h12c10.7 0 12.2-.2 14-2 6.2-6.2 5.1-18.8-2-22.5-2-1.1-6-1.5-13.5-1.5H389v13zM488.6 207.7c-2.7 8.2-5.1 15.4-5.3 16-.4 1 2.1 1.3 10.7 1.3s11.1-.3 10.7-1.3c-.2-.6-2.6-7.8-5.3-16-2.7-8.1-5.1-14.7-5.4-14.7-.3 0-2.7 6.6-5.4 14.7zM573 214.1v29.2l10.3-.5c14.7-.7 20.9-4.4 25.9-15.3 1.8-4 2.2-6.8 2.3-14 0-7.9-.3-9.7-2.8-14.8-5-10-11.8-13.6-26.4-13.7H573v29.1zM108 367.5v46.6l38.8-.3 38.7-.3 5.6-2.8c16.1-7.9 26.2-30.5 22.9-51.2-2.4-15.1-12.6-29.6-24.7-35.3l-5.8-2.7-37.7-.3-37.8-.3v46.6z"/></svg>