<svg xmlns="http://www.w3.org/2000/svg" width="1000" height="1000"><path fill="#146AFF" stroke="#231F20" stroke-miterlimit="10" d="M0 0h1000v1000H0z"/><g fill="#FFF"><path d="M97.3 375.6V235.58h32.34v60.35l51.27-60.35h36.29l-52.46 62.52 56 77.5h-36.87l-39.64-56.4-14.59 15.18v41.22H97.3z"/><path d="M285.03 376.78c-10.38 0-19.85-2.04-28.4-6.11a69.9 69.9 0 0 1-21.88-16.08 73.17 73.17 0 0 1-14.1-22.77 71.73 71.73 0 0 1-5.03-26.43c0-9.2 1.74-18.07 5.22-26.62a70.96 70.96 0 0 1 14.6-22.58 71.16 71.16 0 0 1 22.18-15.58c8.54-3.87 17.88-5.81 28-5.81 10.39 0 19.85 2.04 28.4 6.1a69.28 69.28 0 0 1 21.89 16.18 73 73 0 0 1 14 22.87 72.03 72.03 0 0 1 4.93 26.03 69.9 69.9 0 0 1-5.23 26.63 71.89 71.89 0 0 1-14.5 22.58 71.35 71.35 0 0 1-22.08 15.67c-8.54 3.95-17.88 5.92-28 5.92zm-36.48-71c0 5.4.79 10.63 2.37 15.69a41.86 41.86 0 0 0 7 13.5 34.43 34.43 0 0 0 11.53 9.47c4.6 2.36 9.86 3.55 15.78 3.55 6.18 0 11.57-1.25 16.17-3.75 4.6-2.5 8.41-5.75 11.44-9.76 3.02-4 5.29-8.54 6.8-13.6a53.85 53.85 0 0 0 2.27-15.49 52.4 52.4 0 0 0-2.37-15.67 39.77 39.77 0 0 0-7.1-13.41c-3.15-3.88-7-6.97-11.53-9.27-4.54-2.3-9.77-3.45-15.68-3.45-6.18 0-11.54 1.21-16.07 3.64a35.9 35.9 0 0 0-11.44 9.57 40.38 40.38 0 0 0-6.9 13.5 53.84 53.84 0 0 0-2.27 15.49zM405.92 295.53v80.07h-32.35V235.58h25.25l65.27 82.24v-82.24h32.34V375.6H470.4l-64.48-80.07zM523.25 375.6V235.58h63.1a40.6 40.6 0 0 1 18.24 4.15 48.52 48.52 0 0 1 14.5 10.84 50.8 50.8 0 0 1 9.56 15.19 45.2 45.2 0 0 1 3.45 17.15 49.18 49.18 0 0 1-6.11 23.86 43.03 43.03 0 0 1-16.76 16.77l30.76 52.06h-36.48l-26.82-45.16h-21.1v45.16h-32.34zm32.34-73.36h29.58c3.8 0 7.1-1.8 9.86-5.43 2.76-3.6 4.14-8.24 4.14-13.9 0-5.78-1.58-10.38-4.73-13.8-3.16-3.42-6.58-5.13-10.26-5.13h-28.6v38.26zM691.26 235.58h29.19l51.07 140.02H738.4l-10.84-31.36h-43.58l-10.65 31.36h-33.13l51.07-140.02zm30.96 86.38l-16.36-49.5-16.77 49.5h33.13zM785.33 375.6V235.58h52.25c11.57 0 21.7 1.85 30.37 5.53 8.68 3.68 15.94 8.67 21.8 14.98a62.53 62.53 0 0 1 13.2 22.19 81.75 81.75 0 0 1 4.44 27.11c0 10.65-1.64 20.28-4.93 28.9-3.28 8.6-7.98 15.97-14.1 22.08s-13.47 10.85-22.08 14.2c-8.61 3.35-18.18 5.03-28.7 5.03h-52.25zm89.13-70.2c0-6.18-.82-11.8-2.46-16.87a37.92 37.92 0 0 0-7.2-13.11 31.38 31.38 0 0 0-11.64-8.48 39.2 39.2 0 0 0-15.57-2.96h-19.92v83.22h19.92c5.91 0 11.17-1.05 15.77-3.15a31.9 31.9 0 0 0 11.54-8.78 39.95 39.95 0 0 0 7.1-13.21 53.7 53.7 0 0 0 2.46-16.67z"/><g><path d="M97.52 766.37V407.82h156.05c16.16 0 31.06 3.37 44.7 10.1a114.59 114.59 0 0 1 35.09 26.51 125.15 125.15 0 0 1 22.98 37.37 114.62 114.62 0 0 1 8.33 42.68c0 12.12-1.69 23.73-5.05 34.84a122.18 122.18 0 0 1-14.14 30.8 99.33 99.33 0 0 1-22.22 24.5 91.52 91.52 0 0 1-28.79 15.4l84.34 136.35h-64.14L236.9 641.64h-82.82v124.73H97.52zm56.56-174.73h98.98c8.08 0 15.4-1.77 21.97-5.3a51.96 51.96 0 0 0 16.92-14.65 74.27 74.27 0 0 0 11.1-21.46c2.7-8.08 4.05-16.66 4.05-25.75s-1.6-17.68-4.8-25.76a74.03 74.03 0 0 0-12.62-21.21 59.97 59.97 0 0 0-18.18-14.4 46.54 46.54 0 0 0-21.46-5.3h-95.95v133.83zM677.26 716.38v50H431.33V407.81h241.39v50H487.89v102h160.08v46.97H487.9v109.59h189.37zM714.13 703.25c5.72 4.03 14.22 8 25.5 11.86 11.27 3.88 24.15 5.81 38.63 5.81 15.48 0 27.86-2.78 37.12-8.33 9.25-5.56 16.32-13.8 21.2-24.75 4.88-10.93 8.09-24.57 9.6-40.9 1.52-16.33 2.28-35.27 2.28-56.82v-182.3h57.06v182.3c0 27.28-1.35 52.1-4.04 74.5-2.7 22.39-8.42 41.49-17.17 57.3-8.76 15.84-21.55 28.12-38.38 36.87-16.84 8.76-39.4 13.14-67.67 13.14-30.3 0-56.23-7.4-77.77-22.23l13.63-46.45z"/></g></g><path fill="none" d="M-7691-54.89H8692"/></svg>